<?xml version="1.0" encoding="UTF-8" standalone="no"?>
<!DOCTYPE svg PUBLIC "-//W3C//DTD SVG 1.0//EN" "http://www.w3.org/TR/2001/PR-SVG-20010719/DTD/svg10.dtd">
<svg width="26cm" height="25cm" viewBox="144 143 510 491" xmlns="http://www.w3.org/2000/svg" xmlns:xlink="http://www.w3.org/1999/xlink">
  <ellipse style="fill: #000000" cx="398.8" cy="154" rx="10" ry="10"/>
  <g>
    <line style="fill: none; fill-opacity:0; stroke-width: 1; stroke: #000000" x1="398.8" y1="165.002" x2="398.8" y2="193.764"/>
    <polyline style="fill: none; fill-opacity:0; stroke-width: 1; stroke: #000000" points="393.8,184.882 398.8,194.882 403.8,184.882 "/>
  </g>
  <g>
    <line style="fill: none; fill-opacity:0; stroke-width: 1; stroke: #000000" x1="398.8" y1="232" x2="399.619" y2="290.764"/>
    <polyline style="fill: none; fill-opacity:0; stroke-width: 1; stroke: #000000" points="394.496,281.953 399.634,291.882 404.495,281.813 "/>
  </g>
  <text font-size="12.8" style="fill: #000000;text-anchor:start;font-family:sans-serif;font-style:normal;font-weight:normal" x="408" y="258">
    <tspan x="408" y="258">Bestellungseingang</tspan>
  </text>
  <g>
    <rect style="fill: #ffffff" x="323.1" y="196" width="151.4" height="36" rx="10" ry="10"/>
    <rect style="fill: none; fill-opacity:0; stroke-width: 2; stroke: #000000" x="323.1" y="196" width="151.4" height="36" rx="10" ry="10"/>
    <text font-size="12.8" style="fill: #000000;text-anchor:middle;font-family:sans-serif;font-style:normal;font-weight:normal" x="398.8" y="217.9">
      <tspan x="398.8" y="217.9">Bestellsystem bereit</tspan>
    </text>
  </g>
  <g>
    <rect style="fill: #ffffff" x="146" y="293" width="507.3" height="340" rx="10" ry="10"/>
    <rect style="fill: none; fill-opacity:0; stroke-width: 2; stroke: #000000" x="146" y="293" width="507.3" height="340" rx="10" ry="10"/>
    <text font-size="12.7998" style="fill: #000000;text-anchor:middle;font-family:sans-serif;font-style:normal;font-weight:normal" x="399.65" y="314.9">
      <tspan x="399.65" y="314.9">                                         Bestellung in Verarbeitung                                     </tspan>
      <tspan x="399.65" y="330.9"></tspan>
      <tspan x="399.65" y="346.9"></tspan>
      <tspan x="399.65" y="362.9"></tspan>
      <tspan x="399.65" y="378.9"></tspan>
      <tspan x="399.65" y="394.9"></tspan>
      <tspan x="399.65" y="410.9"></tspan>
      <tspan x="399.65" y="426.9"></tspan>
      <tspan x="399.65" y="442.9"></tspan>
      <tspan x="399.65" y="458.9"></tspan>
      <tspan x="399.65" y="474.9"></tspan>
      <tspan x="399.65" y="490.9"></tspan>
      <tspan x="399.65" y="506.9"></tspan>
      <tspan x="399.65" y="522.9"></tspan>
      <tspan x="399.65" y="538.9"></tspan>
      <tspan x="399.65" y="554.9"></tspan>
      <tspan x="399.65" y="570.9"></tspan>
      <tspan x="399.65" y="586.9"></tspan>
      <tspan x="399.65" y="602.9"></tspan>
      <tspan x="399.65" y="618.9"></tspan>
    </text>
  </g>
  <g>
    <ellipse style="fill: #000000" cx="401" cy="338" rx="10" ry="10"/>
    <g>
      <line style="fill: none; fill-opacity:0; stroke-width: 1; stroke: #000000" x1="400.896" y1="348.993" x2="400.671" y2="372.764"/>
      <polyline style="fill: none; fill-opacity:0; stroke-width: 1; stroke: #000000" points="395.755,363.835 400.661,373.882 405.755,363.93 "/>
    </g>
    <text font-size="12.7998" style="fill: #000000;text-anchor:start;font-family:sans-serif;font-style:normal;font-weight:normal" x="415" y="361">
      <tspan x="415" y="361">Freigabe der Bestellung</tspan>
    </text>
  </g>
  <g>
    <rect style="fill: #ffffff" x="233" y="412" width="109.4" height="36" rx="10" ry="10"/>
    <rect style="fill: none; fill-opacity:0; stroke-width: 2; stroke: #000000" x="233" y="412" width="109.4" height="36" rx="10" ry="10"/>
    <text font-size="12.7998" style="fill: #000000;text-anchor:middle;font-family:sans-serif;font-style:normal;font-weight:normal" x="287.7" y="433.9">
      <tspan x="287.7" y="433.9">Bereitstellung</tspan>
    </text>
  </g>
  <g>
    <rect style="fill: #ffffff" x="390" y="412" width="178.15" height="36" rx="10" ry="10"/>
    <rect style="fill: none; fill-opacity:0; stroke-width: 2; stroke: #000000" x="390" y="412" width="178.15" height="36" rx="10" ry="10"/>
    <text font-size="12.7998" style="fill: #000000;text-anchor:middle;font-family:sans-serif;font-style:normal;font-weight:normal" x="479.075" y="433.9">
      <tspan x="479.075" y="433.9">Erstellung der Rechnung</tspan>
    </text>
  </g>
  <rect style="fill: #000000" x="237" y="376" width="328" height="8"/>
  <g>
    <line style="fill: none; fill-opacity:0; stroke-width: 1; stroke: #000000" x1="287" y1="382" x2="287.648" y2="409.765"/>
    <polyline style="fill: none; fill-opacity:0; stroke-width: 1; stroke: #000000" points="282.442,401.002 287.674,410.882 292.439,400.768 "/>
  </g>
  <g>
    <line style="fill: none; fill-opacity:0; stroke-width: 1; stroke: #000000" x1="477.952" y1="383.287" x2="478.988" y2="409.766"/>
    <polyline style="fill: none; fill-opacity:0; stroke-width: 1; stroke: #000000" points="473.644,401.086 479.031,410.883 483.637,400.695 "/>
  </g>
  <rect style="fill: #000000" x="237.2" y="477.175" width="328" height="8"/>
  <g>
    <g>
      <line style="fill: none; fill-opacity:0; stroke-width: 1; stroke: #000000" x1="287.552" y1="447.687" x2="288.2" y2="475.451"/>
      <polyline style="fill: none; fill-opacity:0; stroke-width: 1; stroke: #000000" points="282.994,466.688 288.226,476.569 292.992,466.455 "/>
    </g>
    <g>
      <line style="fill: none; fill-opacity:0; stroke-width: 1; stroke: #000000" x1="478.505" y1="448.973" x2="479.54" y2="475.452"/>
      <polyline style="fill: none; fill-opacity:0; stroke-width: 1; stroke: #000000" points="474.197,466.772 479.584,476.569 484.189,466.382 "/>
    </g>
  </g>
  <g>
    <rect style="fill: #ffffff" x="346" y="519.875" width="110.4" height="36" rx="10" ry="10"/>
    <rect style="fill: none; fill-opacity:0; stroke-width: 2; stroke: #000000" x="346" y="519.875" width="110.4" height="36" rx="10" ry="10"/>
    <text font-size="12.7998" style="fill: #000000;text-anchor:middle;font-family:sans-serif;font-style:normal;font-weight:normal" x="401.2" y="541.775">
      <tspan x="401.2" y="541.775">Versandbereit</tspan>
    </text>
  </g>
  <g>
    <line style="fill: none; fill-opacity:0; stroke-width: 1; stroke: #000000" x1="401.2" y1="485.175" x2="401.2" y2="517.639"/>
    <polyline style="fill: none; fill-opacity:0; stroke-width: 1; stroke: #000000" points="396.2,508.757 401.2,518.757 406.2,508.757 "/>
  </g>
  <text font-size="12.7998" style="fill: #000000;text-anchor:start;font-family:sans-serif;font-style:normal;font-weight:normal" x="411" y="505.875">
    <tspan x="411" y="505.875">übergabe an die Spedition</tspan>
  </text>
  <g>
    <ellipse style="fill: #ffffff" cx="401" cy="603.875" rx="15" ry="15"/>
    <ellipse style="fill: none; fill-opacity:0; stroke-width: 2; stroke: #000000" cx="401" cy="603.875" rx="15" ry="15"/>
    <ellipse style="fill: #000000" cx="401" cy="603.875" rx="10" ry="10"/>
  </g>
  <g>
    <line style="fill: none; fill-opacity:0; stroke-width: 1; stroke: #000000" x1="401.2" y1="555.875" x2="401.014" y2="586.639"/>
    <polyline style="fill: none; fill-opacity:0; stroke-width: 1; stroke: #000000" points="396.067,577.727 401.007,587.757 406.067,577.787 "/>
  </g>
</svg>
